Coordinates
version=1
nRows=65
nColumns=12
inDegrees=yes

Units are S.I. units (second, meters, Newtons, ...)
Angles are in degrees

endheader
time	SC_y	SC_z	SC_x	AC_y	AC_z	AC_x	GH_y	GH_z	GH_yy	EL_x	PS_y
       0.0              -37.87          35.94          53.97           62.4         -4.116           6.08          52.73          83.41         -152.5          61.25          102.4
   0.03663              -37.87          35.94          53.97           62.4         -4.115          6.082           52.7           83.4         -152.5          61.24          102.4
   0.07326              -37.87          35.93          53.97           62.4         -4.113          6.083          52.67          83.39         -152.5          61.24          102.4
    0.1099              -37.87          35.93          53.97           62.4         -4.111          6.085          52.63          83.38         -152.4          61.23          102.4
    0.1465              -37.87          35.93          53.97           62.4         -4.108          6.087           52.6          83.37         -152.4          61.22          102.4
    0.1831              -37.87          35.92          53.98          62.39         -4.106          6.089          52.56          83.36         -152.4          61.21          102.4
    0.2198              -37.87          35.92          53.98          62.39         -4.104          6.091          52.52          83.35         -152.4           61.2          102.4
    0.2564              -37.87          35.91          53.98          62.39         -4.101          6.093          52.47          83.33         -152.4          61.19          102.4
     0.293              -37.87          35.91          53.98          62.39         -4.098          6.095          52.42          83.32         -152.4          61.18          102.5
    0.3297              -37.87           35.9          53.98          62.38         -4.095          6.098          52.37          83.31         -152.3          61.17          102.5
    0.3663              -37.87           35.9          53.98          62.38         -4.092            6.1          52.32          83.29         -152.3          61.16          102.5
    0.4029              -37.87          35.89          53.99          62.38         -4.088          6.103          52.26          83.27         -152.3          61.15          102.5
    0.4395              -37.87          35.88          53.99          62.37         -4.084          6.106          52.19          83.25         -152.3          61.13          102.5
    0.4762              -37.87          35.88          53.99          62.37          -4.08           6.11          52.13          83.23         -152.2          61.12          102.5
    0.5128              -37.87          35.87           54.0          62.37         -4.076          6.113          52.05          83.21         -152.2           61.1          102.6
    0.5494              -37.87          35.86           54.0          62.36         -4.071          6.117          51.97          83.19         -152.2          61.09          102.6
    0.5861              -37.87          35.85           54.0          62.36         -4.066          6.122          51.88          83.16         -152.1          61.07          102.6
    0.6227              -37.87          35.84          54.01          62.35          -4.06          6.126          51.79          83.14         -152.1          61.05          102.6
    0.6593              -37.87          35.83          54.01          62.35         -4.054          6.131          51.68           83.1         -152.0          61.02          102.6
     0.696              -37.87          35.82          54.01          62.34         -4.047          6.137          51.57          83.07         -152.0           61.0          102.7
    0.7326              -37.87          35.81          54.02          62.33         -4.039          6.143          51.44          83.04         -151.9          60.97          102.7
    0.7692              -37.87          35.79          54.03          62.33         -4.031           6.15          51.31          82.99         -151.9          60.94          102.7
    0.8058              -37.87          35.77          54.03          62.32         -4.022          6.157          51.15          82.95         -151.8          60.91          102.8
    0.8425              -37.87          35.76          54.04          62.31         -4.012          6.165          50.98           82.9         -151.7          60.87          102.8
    0.8791              -37.87          35.74          54.05           62.3           -4.0          6.175           50.8          82.85         -151.6          60.83          102.9
    0.9157              -37.87          35.72          54.05          62.29         -3.988          6.185          50.59          82.79         -151.6          60.79          102.9
    0.9524              -37.87          35.69          54.06          62.28         -3.974          6.196          50.35          82.72         -151.5          60.73          103.0
     0.989              -37.87          35.66          54.07          62.26         -3.958          6.209          50.09          82.64         -151.3          60.68          103.0
     1.026              -37.87          35.63          54.09          62.25          -3.94          6.224          49.79          82.55         -151.2          60.61          103.1
     1.062              -37.87           35.6           54.1          62.23         -3.919           6.24          49.45          82.46         -151.1          60.54          103.2
     1.099              -37.87          35.56          54.11          62.21         -3.896          6.259          49.06          82.34         -150.9          60.46          103.3
     1.135              -37.87          35.51          54.13          62.18         -3.869          6.281          48.62          82.21         -150.7          60.36          103.4
     1.172              -37.87          35.46          54.15          62.16         -3.839          6.305          48.11          82.06         -150.5          60.25          103.5
     1.209              -37.87          35.39          54.18          62.12         -3.803          6.334          47.51          81.89         -150.2          60.12          103.7
     1.245              -37.87          35.32           54.2          62.09         -3.761          6.368          46.82          81.69         -149.9          59.97          103.9
     1.282              -37.87          35.23          54.24          62.04         -3.712          6.408           46.0          81.45         -149.6          59.79          104.1
     1.319              -37.87          35.13          54.28          61.99         -3.653          6.456          45.02          81.17         -149.2          59.58          104.3
     1.355              -37.87          35.01          54.32          61.93         -3.583          6.513          43.85          80.83         -148.6          59.32          104.6
     1.392              -37.87          34.86          54.38          61.85         -3.497          6.582          42.44          80.41         -148.0          59.02          105.0
     1.429              -37.87          34.68          54.45          61.76         -3.394          6.666          40.71          79.91         -147.3          58.64          105.4
     1.465              -37.87          34.45          54.53          61.65         -3.265           6.77          38.58          79.29         -146.4          58.18          105.9
     1.502              -37.87          34.17          54.64           61.5         -3.105          6.899          35.92          78.52         -145.2           57.6          106.6
     1.538              -37.87          33.82          54.78          61.32         -2.904          7.063          32.57          77.54         -143.8          56.88          107.4
     1.575              -37.88          33.38          54.95          61.09         -2.648           7.27          28.31           76.3         -141.9          55.95          108.5
     1.612              -37.88           32.8          55.16           60.8          -2.32          7.536          22.85          74.71         -139.6          54.77          109.8
     1.648              -37.88          32.07          55.44          60.43         -1.899          7.877          15.86          72.68         -136.6          53.25          111.6
     1.685              -37.88          31.13           55.8          59.95         -1.362          8.312          6.921          70.08         -132.7          51.32          113.8
     1.722              -37.89          29.95          56.25          59.35        -0.6858           8.86         -4.317          66.81         -127.8          48.88          116.6
     1.758              -37.89          28.51           56.8          58.61         0.1378          9.527         -18.01          62.82         -121.9          45.91          120.0
     1.795               -37.9          26.84          57.44          57.76          1.092           10.3         -33.88           58.2         -115.1          42.47          124.0
     1.831               -37.9          25.04          58.12          56.84          2.126          11.14         -51.07           53.2         -107.6          38.74          128.3
     1.868              -37.91          23.23          58.81          55.92           3.16          11.97         -68.26           48.2         -100.2          35.01          132.6
     1.905              -37.91          21.57          59.45          55.07          4.114          12.75         -84.13          43.58         -93.37          31.57          136.5
     1.941              -37.92          20.13           60.0          54.33          4.938          13.41         -97.82          39.59         -87.45           28.6          140.0
     1.978              -37.92          18.95          60.45          53.73          5.614          13.96         -109.1          36.32          -82.6          26.16          142.8
     2.015              -37.92          18.01           60.8          53.25          6.151           14.4         -118.0          33.72         -78.74          24.22          145.0
     2.051              -37.93          17.28          61.08          52.88          6.572          14.74         -125.0          31.69         -75.72          22.71          146.7
     2.088              -37.93           16.7           61.3          52.59            6.9           15.0         -130.4           30.1         -73.36          21.52          148.1
     2.124              -37.93          16.26          61.47          52.36          7.156          15.21         -134.7          28.86         -71.52           20.6          149.2
     2.161              -37.93           15.9          61.61          52.18          7.357          15.37         -138.1          27.89         -70.08          19.87          150.0
     2.198              -37.93          15.62          61.71          52.04          7.517           15.5         -140.7          27.11         -68.93           19.3          150.7
     2.234              -37.93           15.4           61.8          51.92          7.646          15.61         -142.8          26.49         -68.01          18.83          151.2
     2.271              -37.93          15.22          61.87          51.83          7.749          15.69         -144.6          25.99         -67.26          18.46          151.6
     2.308              -37.93          15.07          61.92          51.75          7.835          15.76         -146.0          25.58         -66.65          18.15          152.0
     2.344              -37.93          14.95          61.97          51.69          7.905          15.82         -147.2          25.24         -66.14           17.9          152.3
